<?xml version="1.0" encoding="utf-8"?>
<!-- Svg Vector Icons : http://www.onlinewebfonts.com/icon -->
<!DOCTYPE svg PUBLIC "-//W3C//DTD SVG 1.1//EN" "http://www.w3.org/Graphics/SVG/1.1/DTD/svg11.dtd">
<svg version="1.1" xmlns="http://www.w3.org/2000/svg" xmlns:xlink="http://www.w3.org/1999/xlink" x="0px" y="0px" viewBox="0 0 1000 1000" enable-background="new 0 0 1000 1000" xml:space="preserve">
<metadata> Svg Vector Icons : http://www.onlinewebfonts.com/icon </metadata>
<g><g><path d="M371.6,448.2V195.9h-0.8c32.8-33.7,78.5-54.7,129.2-54.7c50.7,0,96.5,21,129.2,54.7h-0.8v252.3C595.7,481.4,550.3,502,500,502S404.3,481.3,371.6,448.2z M576.5,514.3H423.5c-127.3,0-230.9,103.6-230.9,230.9v187.2l0.5,2.9l12.9,4C327.4,977.3,433,990,519.9,990c169.7,0,268.1-48.4,274.2-51.5l12.1-6.1h1.3V745.2C807.5,617.9,703.9,514.3,576.5,514.3z M353.1,439.9V223.3c-7.7,0-15.2,0.8-22.5,2.3v-7.2c0-96.3,78.4-174.7,174.7-174.7c96.3,0,174.7,78.4,174.7,174.7v10.1c-10.5-3.4-21.6-5.2-33.2-5.2v216.7c59.8,0,108.3-48.5,108.3-108.3c0-34.6-16.2-65.3-41.4-85.1v-28C713.8,103.5,620.3,10,505.4,10C390.5,10,297,103.5,297,218.4v20.5c-31.3,19-52.2,53.4-52.2,92.7C244.8,391.4,293.3,439.9,353.1,439.9z"/></g><g></g><g></g><g></g><g></g><g></g><g></g><g></g><g></g><g></g><g></g><g></g><g></g><g></g><g></g><g></g></g>
</svg>